<svg viewBox="0 0 60 144" xml:space="preserve" xmlns="http://www.w3.org/2000/svg"><path style="paint-order:markers stroke fill" d="M26.1 2.645c-2.005.081-3.833 1.616-4.596 2.628-.764 1.013-.94 3.168-.988 4.116s.223 3.037.859 3.935 1.987 2.515 2.05 4.033c.065 1.519-1.143 2.467-2.734 4.95s-3.754 8.72-4.295 10.353-1.463 8.297-1.416 9.162-1.113 6.988-1.113 7.707.939 8.543.89 9.506c-.047.964-1.604 2.465-2.384 3.297s-2.37 4.852-2.768 5.57c-.397.719-.142 2.859-.142 3.692s-.94 2.694-1.496 3.314c-.557.62-1.59 2.367-1.813 2.776s-.778 1.095-1.064 1.29c-.287.197-1.481 1.699-1.88 2.499-.397.8-.443 1.503-.522 2.695-.08 1.193.238 1.91.587 1.91.35 0 .207-.849.254-1.273.048-.425.62-.865.78-.784.159.082 0 .409-.127.915-.128.506.033 1.861.144 2.253.112.392.556.966 1.002.834.445-.13.08-.736.065-1.095-.017-.36.124-.18.14-1.323s.51-2.057.844-2.04.746 1.52 1.129 2.236c.4.744 1.774 2.494 2.26 1.994.555-.572-.843-2.01-.907-2.549-.068-.579-.684-1.601.254-2.369.32-.261.367-.668.828-.586s.19.26.73 1.566c.542 1.307 1.624 2.092 2.054 2.37.429.277 1.985.636 2.033.064s-.842-.751-1.479-1.322c-.636-.572-.841-1.65-1.191-2.157-.35-.506-.081-1.076.11-1.468.19-.392.637-2.207.67-2.5.03-.294.077-2.139.077-2.139s.318.423.573.75.86 2.876 1.02 3.71c.158.832.968 7.136.968 7.136s1.051 10.925 1.226 11.398c.175.474.859 10.484 1.034 11.71.175 1.224.573 9.226.62 10.45.048 1.225-.524 4.197-.874 4.801s-.796 2.19-.748 2.973c.047.784-1.115 3.085-1.416 3.412-.303.327-1.718.198-2.02.54-.302.344-.237.472-.27.962-.031.49-.628.654-.605 1.26.03.767 1.613 1.45 2.656 1.502.835.04 1.844-.425 1.844.18 0 .604-.668.703-.668 1.421s2.306 2.105 3.117 1.256c.812-.85 1.289-.687 3.086-.8 1.798-.115 1.607.458 2.116.964.509.507 1.813-.457 2.609.31.795.768 1.446 1.11 2.592 1.143 1.145.033 1.988-.703 4.183-.164s1.956-1.174 1.13-1.892c-.828-.72-.542-.574 1.796-.59s2.864-.279 1.926-1.569c-.939-1.29.78-1.32 1.781-.062 1.002 1.257 1.86.798 2.37.308.508-.489 1.302-.44 2.734-.244s.748-.572.62-1.65c-.127-1.078-3.053-1.519-3.324-1.846-.27-.326-.031-1.158-.222-1.469-.19-.31-.493-.066-.7-.212-.206-.148.11-.8.094-2.057-.015-1.257-.666-1.6-1.207-1.682-.54-.081-.733.63-.906.537-.126-.066-.096-.602-.383-1.043-.286-.44-1.239-.115-1.414-.343s.207-3.544-.222-4.1c-.43-.555-1.8-9.554-1.815-10.517-.016-.964.574-4.506.59-5.24.016-.735-.557-5.08-.557-5.815s.126-2.434.412-2.434c.287 0 .034 4.295.686 4.213s.428-7.315.412-8.441-.38-6.894-.492-8.168-.176-5.519-.207-6.94c-.032-1.42.046-2.58.174-2.613.127-.033.142.212.142.963 0 .752.344 14.074 3.104 14.34 1.952.188 2.5-4.507 3.252-8.602.3-3.567.396-5.253.611-7.992.214-2.66.313-7.314.313-8.262 0-.947-.2-4.915-.233-5.781-.032-.866-.033-8.687.381-8.654.413.032.303.988.467 3.607.163 1.898.401 8.538 1.629 9.203 1.479-.402 1.598-8.027 1.703-9.394-.008-1.448-.147-3.62-.115-4.256s-.206-3.052-.19-3.836-.213-2.51-.25-3.834c.859-.67 3.692-1.7 4.217-2.63.525-.932 1.192-.668 2.687-1.632 1.496-.963 2.324-3.151 2.483-3.707.159-.555-.463-1.796-.59-.719-.127 1.078-1.272 1.73-1.494 1.811-.223.082-.336.035-.336-.178 0-.212.413-.62.668-1.176.254-.554.654-2.162.414-2.89-.284-.86-.507-.537-.508-.098-.001.452-.198 1.445-1.035 2.334-.376.4-1.35 1.487-1.35 1.487s-.162-1.046-.369-1.584c-.206-.54-.953-1.29-1.748-1.323s-.969.751-.842 1.143c.128.392.38.915.237 1.176s-.715.195-.969.097c-.255-.098-.383-1.454-.367-1.96.016-.507.191-1.452.207-2.122s-1.016-2.009-1.35-2.531-.574-.115-.734.229c-.159.343.065 2.776.256 3.511.19.735-.048 2.285-.239 2.776-.19.489-1.289 1.599-1.718 2.334s-1.559 4.426-1.909 5.046-3.005 2.141-3.005 2.141-.445-.572-1.002-1.617-.749-3.218-.733-3.691c.016-.474-.19-2.89-.43-3.592-.238-.702-.38-1.078-.173-1.551.207-.474-.127-3.266-.334-4.018s-.32-.816.174-1.486c.492-.67.43-3.446.367-4.426-.064-.98-1.273-3.087-1.957-3.119s-.62-.393-.557-.932c.064-.538-.095-.914-.73-.947-.636-.033-.702-.57-.813-1.517-.111-.948-1.063-1.978-1.684-1.995-.62-.016-1.448.36-2.083-1.06-.637-1.42.509-2.009.97-2.4.461-.392.92-2.091.586-3.43-.334-1.34-1.622-1.939-1.664-1.895-.052.054.202.434.44.785.206.348.238.702.27 1.192.031.49-.142 1.389-.46 1.389s-.38-.675-.596-1.21c-.22-.55-1.112-1.026-1.181-.925-.059.086.504.734.6 1.338s-.096.845-.669.845c-.572 0-.639-.92-.795-1.271-.193-.436-.628-.548-.671-.469-.05.091.172.458.228.75.174.902-.624.32-1.037.01-.414-.31-1.02-.872-1.24-1.275-.213-.39-.285-2.059.256-2.973s1.123-.442 1.33-.295c.254.173.31.578.384.572.086-.007.15-.488.06-.744-.122-.34-.392-.576-.042-.805.35-.228.72.208.99.567s.267.782.385.816c.189.056.181-.964.098-1.34-.068-.3-.423-.957-.2-1.136.224-.18.46-.018.715.21.255.23.526 1.098.575 1.647.058.667-.193 1.325-.092 1.383.1.057.503-.389.672-1.223.135-.667.05-1.103-.262-2.084-.451-1.42-2.276-2.302-4.28-2.22m11.816 37.134s.002 4.23.352 5.422.777 2.4.777 2.4l-2.672 1.669s-.238-2.255.51-4.002c.747-1.748 1.033-5.489 1.033-5.489m-6.123 5.422s.382.557.35 1.276L32.08 47.9c.1 1.423.342 1.85.565 3.385.195 1.349-.788 4.341-.743 5.496s.255 2.742.471 3.557c.188.707.165 1.539 1.256 2.293.654.367 1.057.5 1.693.601.636-.032.51.424.541.784.032.359.287 6.466.35 7.38.064.915 0 9.54-.795 9.506-.795-.032-.7-2.352-.7-3.822 0 0 .097-1.338.065-1.959-.032-.62-.826-2.646-1.144-3.463-.318-.816-.29-1.927-.098-2.123s.033-1.698-.062-2.025c-.587-1.753-1.063-3.54-1.805-5.235-.239-.344-.876-1.062-.899-2.078-.022-1.016.295-.644.317-1.707.023-1.062-1.055-2.24-1.123-3.35-.068-1.108.627-1.892.582-2.562s-.112-1.733.203-2.45c.283-.94.446-1.666.57-2.683l-.008-.006s.055-.414.1-1.02c.024-.573.377-1.218.377-1.218m-12.057 5.13s-.174 3.902-.158 4.8-.287 4.996-.383 5.976c-.095.98.286 4.248.7 5.456.413 1.208.35 5.781.35 6.5 0 .718.86 6.5.796 8.132.064.686-.096 5.244-.096 5.979s-.19 4.816-.556 4.816-1.288-4.132-1.909-6.63c-.62-2.5-.795-5.634-.81-7.528s-.604-3.675-.652-4.605.317-1.586.238-4.182.827-4.113.875-5.6-.622-4.215-.654-5.293 2.26-7.822 2.26-7.822m20.389 9.896c1.033-.111 1.633 3.965 1.688 5.619.03 1.861-.35 17.341-.668 19.888 0 0-.096 2.812-.891 2.844-.53-.408-.505-3.884-.664-5.256s-.103-3.795-.135-4.416c-.032-.62.154-3.544.154-3.969s-.114-4.611-.146-8.53c-.032-3.92-.002-6.11.662-6.18M25.93 69.39c.538.008 1.568.842 2.08 1.386.63.67.855 3.164 1.17 4.62s1.169 7.066.877 8.775-.833.805-1.08.348c-.225-.416-.155-.648-1.325-1.526s-1.508-5.404-1.71-6.998c-.338-1.34-.609-5.934-.294-6.465.06-.1.158-.142.282-.14M16.428 79.4s.86 6.432 1.02 7.576c.158 1.143 2.702 12.574 3.943 12.705 1.24.13 1.496-12.28 1.496-12.28s.572 3.462.476 7.74-1.907 11.203-2.066 16.364c-.159 5.16-.129 8.885-1.274 8.918-1.144.033-1.781-8.624-1.908-9.963-.128-1.34-.286-6.336-.54-8.557S16.429 89.23 16.27 87.565c-.16-1.666.158-8.166.158-8.166"/></svg>