<svg xmlns="http://www.w3.org/2000/svg" viewBox="0 0 100 100"><path d="M50 6.9q-2.1 0-3.9 1.4a47 47 0 0 1-24.8 10c-3.2.3-5.7 3-5.7 6.2v31c0 13 7.3 24.8 19 30.7l12.6 6.2a6 6 0 0 0 5.6 0l12.6-6.2a34 34 0 0 0 19-30.8V24.5c0-3.2-2.5-5.9-5.7-6.2a47 47 0 0 1-24.8-10A6 6 0 0 0 50 6.9M36.7 27.6a6 6 0 0 1 4.6 2.3l9 11.2L59 30a6 6 0 0 1 8.4-1l.4.3a6 6 0 0 1 1 8.4L58.2 51.2l10.5 13.3a6 6 0 0 1-1 8.4l-.4.3a6 6 0 0 1-8.4-1l-8.7-11-8.7 11.1a6 6 0 0 1-8.4 1l-.3-.3a6 6 0 0 1-1-8.4l10.5-13.4-10.8-13.6a6 6 0 0 1 1-8.4l.4-.3a6 6 0 0 1 3.8-1.3"/></svg>
