<svg version="1.1" viewBox="0 0 100 100" xmlns="http://www.w3.org/2000/svg">
 <path d="m51.176 1.332 20.191 11.656 0.11719 0.074219 20.094 11.602c0.73438 0.42188 1.1445 1.1914 1.1484 1.9844h0.007813v46.699c0 0.92578-0.55078 1.7266-1.3438 2.0898l-20.027 11.562 0.003907 0.007812-20.223 11.672c-0.74219 0.43359-1.6328 0.39453-2.3203-0.015626l-20.191-11.656-0.11719-0.074218-20.094-11.602c-0.73438-0.42188-1.1445-1.1914-1.1484-1.9844h-0.007813v-46.699c0-0.92578 0.55078-1.7266 1.3438-2.0898l20.027-11.562-0.003907-0.007813 20.223-11.672c0.74219-0.43359 1.6328-0.39453 2.3203 0.015625zm4.4375 7.8516 16.27 28.18 0.003907-0.003906 16.262 28.168v-37.562l-18.945-10.938-0.12891-0.070313zm26.922 66.09h-65.066l13.332 7.6953 0.12891 0.070312 19.074 11.012 19.074-11.012 0.003906 0.007813 13.457-7.7695zm-70.676-9.7461 16.262-28.168 0.070312-0.12109 16.199-28.055-13.461 7.7734-0.003907-0.007812-19.07 11.012v37.562zm56.066-25.879-17.918-31.035-17.852 30.918-0.070312 0.12891-17.914 31.027h71.66l-17.914-31.027 0.003906-0.003906-0.003906-0.007812z"/>
</svg>
