<svg version="1.1" viewBox="0 0 100 100" xmlns="http://www.w3.org/2000/svg">
 <path d="m8.332 12.5c0-2.3008 1.8672-4.168 4.168-4.168h37.5v8.3359h-33.332v66.664h66.664v-33.332h8.3359v37.5c0 2.3008-1.8672 4.168-4.168 4.168h-75c-2.3008 0-4.168-1.8672-4.168-4.168z" fill-rule="evenodd"/>
 <path d="m75.305 8.332c1.1055 0 2.1641 0.44141 2.9453 1.2227l12.195 12.195c1.6289 1.625 1.6289 4.2656 0 5.8906l-36.586 36.586c-0.6875 0.6875-1.5977 1.1133-2.5664 1.2031l-13.414 1.2188c-1.2344 0.11328-2.4492-0.32813-3.3242-1.2031s-1.3164-2.0898-1.2031-3.3242l1.2188-13.414c0.089844-0.96875 0.51563-1.8789 1.2031-2.5664l36.586-36.586c0.78125-0.78125 1.8398-1.2227 2.9453-1.2227zm-5.082 15.145 6.3008 6.3008 5.0859-5.082-6.3047-6.3047zm0.41016 12.195-6.3047-6.3047-21.594 21.598-0.63281 6.9336 6.9336-0.63281z" fill-rule="evenodd"/>
</svg>
