<?xml version="1.0" encoding="UTF-8"?>
<svg width="100pt" height="100pt" version="1.1" viewBox="0 0 100 100" xmlns="http://www.w3.org/2000/svg">
 <path d="m92.719 4.8594s-4.6914 7.8398-17.219 13.52c-7.1094-5.3203-15.941-8.4688-25.5-8.4688s-18.391 3.1484-25.5 8.4688c-12.531-5.6797-17.219-13.52-17.219-13.52s-6.9609 17.73 3.4297 31.109c-2.1289 5.0781-3.3203 10.691-3.3203 16.551 0 23.539 19.078 42.621 42.621 42.621 23.539 0 42.621-19.078 42.621-42.621 0-5.8594-1.1914-11.469-3.3203-16.551 10.379-13.379 3.4297-31.109 3.4297-31.109zm-56.719 57.762c-2.4609 1.1211-5.3086 1.2383-8.0391 0.32812-2.7305-0.91016-4.9414-2.7109-6.2305-5.0781-1.25-2.2891-1.5508-4.9805-0.89844-7.8516l20.602 6.8711c-1.1992 2.6914-3.0508 4.6602-5.4297 5.7383zm42.27-4.7617c-1.2891 2.3711-3.5117 4.1797-6.2305 5.0781s-5.5781 0.78906-8.0391-0.32812c-2.3789-1.0781-4.2305-3.0508-5.4297-5.7383l20.602-6.8711c0.66016 2.8711 0.35156 5.5586-0.89844 7.8516z"/>
</svg>
