<?xml version="1.0" encoding="UTF-8"?>
<svg width="100pt" height="100pt" version="1.1" viewBox="0 0 100 100" xmlns="http://www.w3.org/2000/svg">
 <path d="m39.898 56.199-7.6992-10.801c-1.8984-2.6016-2-6.3008-0.19922-9 0.19922-0.30078 2.3984-3.5 6.8008-6.6992-16.5 7.3984-34.5 21.398-36 23.801-2.5 4 11.5 5.6016 14 19.199 2.1016 11.898 18 17.602 20.398 11.898 2.3008-5.6016 5-10.801 7.8984-15.398l0.80078-9.6992c-2.5-0.19922-4.5977-1.3984-6-3.3008z"/>
 <path d="m93.102 26.602h-33.102c-17 0-24.801 11.301-25.102 11.801-1 1.5-1 3.5 0.10156 5l7.6992 10.801c0.89844 1.1992 2.1992 1.8008 3.6016 1.8008 0.89844 0 1.8008-0.30078 2.5-0.80078 0.19922-0.19922 0.39844-0.39844 0.60156-0.60156v3.1016l-2.6992 32.602c-0.19922 2.6992 1.8008 5 4.5 5.3008 2.6992 0.19922 5-1.8008 5.3008-4.5l2.6016-31.301 1.8945-0.003907 2.6016 31.199c0.19922 2.5 2.3008 4.5 4.8984 4.5h0.39844c2.6992-0.19922 4.6992-2.6016 4.5-5.3008l-2.6992-32.602-0.19922-22.301h22.699c2.3984 0 4.3984-2 4.3984-4.3984-0.097656-2.3984-2.0977-4.2969-4.4961-4.2969zm-43.602 22-5.3008-7.3984c1.1992-1.1016 3-2.3984 5.3984-3.6016z"/>
 <path d="m69.801 14.199c0 5.4141-4.3867 9.8008-9.8008 9.8008s-9.8008-4.3867-9.8008-9.8008c0-5.4102 4.3867-9.8008 9.8008-9.8008s9.8008 4.3906 9.8008 9.8008z"/>
</svg>
