<svg version="1.1" viewBox="0 0 100 100" xmlns="http://www.w3.org/2000/svg">
 <path d="m73.391 98.984h-46.781c-2.2578 0-4.3125-0.92188-5.8008-2.4102-1.4844-1.4844-2.4102-3.5391-2.4102-5.8008 0-2.2578 0.92578-4.3125 2.4102-5.8008 1.2383-1.2383 2.8672-2.0859 4.6836-2.3359v-10.438c0-6.7422 2.7578-12.867 7.1953-17.309 2.0117-2.0117 4.3711-3.6797 6.9766-4.8984-2.6055-1.2227-4.9648-2.8906-6.9766-4.8984-4.4414-4.4414-7.1953-10.566-7.1953-17.309v-10.438c-1.8164-0.25-3.4453-1.0938-4.6836-2.3359-1.4844-1.4844-2.4102-3.5391-2.4102-5.8008 0-2.2578 0.92578-4.3125 2.4102-5.8008 1.4844-1.4844 3.5391-2.4102 5.8008-2.4102h46.781c2.2578 0 4.3125 0.92188 5.8008 2.4102 1.4844 1.4844 2.4102 3.5391 2.4102 5.8008 0 2.2578-0.92187 4.3125-2.4102 5.8008-1.2383 1.2383-2.8672 2.0859-4.6836 2.3359v10.438c0 6.7422-2.7578 12.867-7.1953 17.309-2.0117 2.0117-4.3711 3.6797-6.9766 4.8984 2.6055 1.2227 4.9648 2.8906 6.9766 4.8984 4.4414 4.4414 7.1953 10.566 7.1953 17.309v10.438c1.8164 0.25 3.4453 1.0938 4.6836 2.3359 1.4844 1.4844 2.4102 3.5391 2.4102 5.8008 0 2.2578-0.92187 4.3125-2.4102 5.8008-1.4844 1.4844-3.5391 2.4102-5.8008 2.4102zm-3.4766-22.914c-6.7383 1.1562-11.543-0.99219-16.391-3.1602-6.0977-2.7227-12.277-5.4883-23.434 0.40625v9.2539h39.824zm-39.824-52.137c6.7383-1.1562 11.543 0.99219 16.391 3.1602 6.0977 2.7227 12.277 5.4883 23.434-0.40625v-9.2539h-39.824z"/>
</svg>
