<svg version="1.1" viewBox="0 0 100 100" xmlns="http://www.w3.org/2000/svg">
 <path d="m85.938 26.562c0-3.3164-1.3164-6.4961-3.6602-8.8398s-5.5234-3.6602-8.8398-3.6602h-46.875c-3.3164 0-6.4961 1.3164-8.8398 3.6602s-3.6602 5.5234-3.6602 8.8398v46.875c0 3.3164 1.3164 6.4961 3.6602 8.8398s5.5234 3.6602 8.8398 3.6602h46.875c3.3164 0 6.4961-1.3164 8.8398-3.6602s3.6602-5.5234 3.6602-8.8398zm-45.312 23.438v-9.375h14.062v28.125h4.6875v9.375h-14.062v-28.125zm9.375-28.125c3.4492 0 6.25 2.8008 6.25 6.25s-2.8008 6.25-6.25 6.25-6.25-2.8008-6.25-6.25 2.8008-6.25 6.25-6.25z" fill-rule="evenodd"/>
</svg>
