<svg version="1.1" viewBox="0 0 100 100" xmlns="http://www.w3.org/2000/svg">
	<path d="m83.59 16.41c-18.547-18.547-48.633-18.547-67.18 0s-18.547 48.633 0 67.18 48.633 18.547 67.18 0 18.547-48.633 0-67.18zm-6.3438 39.922h-20.914v20.91c0 3.5039-2.8398 6.332-6.332 6.332s-6.332-2.8281-6.332-6.332v-20.91h-20.914c-3.5039 0-6.332-2.8398-6.332-6.332s2.8281-6.332 6.332-6.332h20.914v-20.914c0-3.5039 2.8398-6.332 6.332-6.332s6.332 2.8281 6.332 6.332v20.91h20.91c3.5039 0 6.332 2.8398 6.332 6.332 0.003906 3.4961-2.8242 6.3359-6.3281 6.3359z"/>
</svg>
