<svg viewBox="0 0 83 95" xmlns="http://www.w3.org/2000/svg" version="1.1">
 <g>
  <path id="svg_1" d="m77.95688,69.37862c0,-1.375 1.1133,-2.4883 2.4883,-2.4883s2.4883,1.1133 2.4883,2.4883l0,0.53516c0,1.375 -1.1133,2.4883 -2.4883,2.4883s-2.4883,-1.1133 -2.4883,-2.4883l0,-0.53516zm-49.355,-34.766c1.4609,-1.4648 3.832,-1.4648 5.2969,0c1.4609,1.4609 1.4609,3.832 0,5.2969c-1.4648,1.4609 -3.832,1.4609 -5.2969,0c-1.4648,-1.4648 -1.4648,-3.832 0,-5.2969zm20.453,20.453c1.4648,-1.4609 3.832,-1.4609 5.2969,0c1.4648,1.4648 1.4648,3.832 0,5.2969c-1.4609,1.4648 -3.832,1.4648 -5.2969,0c-1.4609,-1.4609 -1.4609,-3.832 0,-5.2969zm-10.227,-10.227c1.4609,-1.4648 3.832,-1.4648 5.293,0c1.4648,1.4609 1.4648,3.832 0,5.293c-1.4609,1.4648 -3.832,1.4648 -5.293,0c-1.4648,-1.4609 -1.4648,-3.832 0,-5.293zm-9.8594,-20.359l25.016,0c2.8828,0 5.5039,1.1797 7.4062,3.082l0.00781,0.00781c1.9023,1.9023 3.082,4.5273 3.082,7.4062l0,25.016c0,2.8828 -1.1797,5.5039 -3.082,7.4062l-0.00781,0.00782c-1.9023,1.90229 -4.5273,3.08199 -7.4062,3.08199l-25.016,0c-2.8828,0 -5.5039,-1.1797 -7.4062,-3.08199l-0.00781,-0.00782c-1.9023,-1.9023 -3.082,-4.5273 -3.082,-7.4062l0,-25.016c0,-2.8828 1.1797,-5.5039 3.082,-7.4062l0.00781,-0.00781c1.9023,-1.9023 4.5273,-3.082 7.4062,-3.082zm25.016,5l-25.016,0c-1.5156,0 -2.8906,0.61719 -3.8867,1.6094c-0.99219,0.99609 -1.6094,2.375 -1.6094,3.8867l0,25.016c0,1.5156 0.61719,2.8906 1.6094,3.8867c0.99609,0.99219 2.375,1.6094 3.8867,1.6094l25.016,0c1.5156,0 2.8906,-0.61719 3.8867,-1.6094c0.99219,-0.99609 1.6094,-2.375 1.6094,-3.8867l0,-25.016c0,-1.5156 -0.61719,-2.8906 -1.6094,-3.8867c-0.99609,-0.99219 -2.375,-1.6094 -3.8867,-1.6094zm18.355,42.309c1.1914,-0.69141 2.7188,-0.28516 3.4062,0.91016c0.69141,1.1914 0.28516,2.7188 -0.91016,3.4062l-32.113,18.539c-0.84766,0.49219 -1.8672,0.42578 -2.6328,-0.08203l-38.828,-22.418c-0.80078,-0.46094 -1.25,-1.2969 -1.25,-2.1562l-0.01172,-45c0,-1.0117 0.60156,-1.8867 1.4688,-2.2773l38.766,-22.379c0.80859,-0.46484 1.7695,-0.42578 2.5195,0.02344l38.934,22.477c0.80078,0.46094 1.25,1.2969 1.25,2.1562l0,36.395c0,1.375 -1.1133,2.4883 -2.4883,2.4883s-2.4883,-1.1133 -2.4883,-2.4883l0,-34.961l-36.48,-21.062l-36.473,21.059l0,42.141l36.469,21.055l30.867,-17.82l-0.00522,-0.00647z"/>
 </g>
</svg>