<svg viewBox="0 0 100 100" xmlns="http://www.w3.org/2000/svg"><path d="M93.824 44.383 80.058 61.379a6.3 6.3 0 0 0-1.398 4.3l1.144 21.84c.2 3.802-3.578 6.548-7.133 5.18l-20.418-7.84a6.3 6.3 0 0 0-4.52 0L27.317 92.7c-3.551 1.364-7.332-1.382-7.133-5.18l1.145-21.84a6.3 6.3 0 0 0-1.399-4.3L6.163 44.383C3.77 41.426 5.21 36.985 8.886 36l21.125-5.66a6.3 6.3 0 0 0 3.656-2.656L45.577 9.34c2.07-3.192 6.742-3.192 8.816 0l11.91 18.344a6.3 6.3 0 0 0 3.657 2.656L91.085 36c3.675.985 5.128 5.43 2.734 8.387z" style="stroke-width: 8px; stroke: black; fill: transparent;"/></svg>